<svg width="200" height="200" viewBox="0 0 200 200" xmlns="http://www.w3.org/2000/svg">
  <rect width="200" height="200" fill="#f0f0f0" rx="20"/>
  <g transform="translate(40, 30)">
    <defs>
      <linearGradient id="grad1" x1="0%" y1="0%" x2="100%" y2="100%">
        <stop offset="0%" style="stop-color:#FF6B6B;stop-opacity:1" />
        <stop offset="50%" style="stop-color:#4ECDC4;stop-opacity:1" />
        <stop offset="100%" style="stop-color:#45B7D1;stop-opacity:1" />
      </linearGradient>
    </defs>
    
    <path d="M 0 0 L 100 0 L 100 20 L 80 40 L 0 40 Z" fill="url(#grad1)"/>
    <path d="M 80 20 L 80 40 L 100 20 Z" fill="#3A9F98"/>
    
    <rect x="0" y="40" width="100" height="90" fill="url(#grad1)" opacity="0.9"/>
    
    <g fill="#FFFFFF" opacity="0.9">
      <rect x="12" y="55" width="60" height="4" rx="2"/>
      <rect x="12" y="65" width="76" height="4" rx="2"/>
      <rect x="12" y="78" width="55" height="4" rx="2"/>
      <rect x="12" y="88" width="70" height="4" rx="2"/>
      <rect x="12" y="101" width="62" height="4" rx="2"/>
    </g>
    
    <circle cx="50" cy="150" r="18" fill="#FFE66D"/>
    <circle cx="50" cy="150" r="10" fill="#FF6B6B"/>
  </g>
</svg>